<?xml version="1.0" encoding="utf-8"?>
<!-- Svg Vector Icons : http://www.onlinewebfonts.com/icon -->
<!DOCTYPE svg PUBLIC "-//W3C//DTD SVG 1.1//EN" "http://www.w3.org/Graphics/SVG/1.1/DTD/svg11.dtd">
<svg version="1.1" xmlns="http://www.w3.org/2000/svg" xmlns:xlink="http://www.w3.org/1999/xlink" x="0px" y="0px" viewBox="0 0 256 256" enable-background="new 0 0 256 256" xml:space="preserve">
<metadata> Svg Vector Icons : http://www.onlinewebfonts.com/icon </metadata>
<g><g><path fill="#000000" d="M185.8,162.6c-7.6-5.7-15.8-10.2-24.4-13.7c4.9-3.1,9.4-6.7,13.6-10.9c14.7-14.7,22.8-34.3,22.8-55.2c0-20.8-8.1-40.4-22.8-55.2C160.3,13,140.7,4.9,119.8,4.9C99,4.9,79.4,13,64.7,27.7C49.9,42.4,41.8,62,41.8,82.9c0,20.8,8.1,40.4,22.8,55.2c4.2,4.2,8.8,7.9,13.7,11l0,0c0,0-0.1,0-0.1,0h0.1c-11.7,4.7-22.7,11.5-32.3,20.2c-20.2,18.1-33,42.8-36.1,69.6c-0.5,4.5,2.7,8.5,7.2,9.1c0.3,0,0.6,0,1,0c4.1,0,7.6-3.1,8.1-7.2c2.6-22.8,13.5-43.8,30.7-59.2c17.3-15.5,39.7-24.1,62.9-24.1c20.4,0,39.8,6.4,56.1,18.5c3.6,2.7,8.7,1.9,11.5-1.7C190.2,170.5,189.4,165.3,185.8,162.6z M76.2,126.5c-11.6-11.6-18-27.1-18-43.6s6.4-31.9,18-43.6c11.6-11.6,27.1-18,43.6-18c16.5,0,31.9,6.4,43.6,18c11.7,11.6,18,27.1,18,43.6s-6.4,32-18.1,43.6c-7.6,7.6-16.8,13-26.9,15.8c-6.3,1.8-12.9,2.5-19.5,2.2c-4.7-0.2-9.4-1-13.9-2.2h0l0,0C93.1,139.4,83.8,134,76.2,126.5z M237.8,205.5h-21.1v-21.1c0-4.5-3.7-8.2-8.2-8.2c-4.5,0-8.2,3.7-8.2,8.2v21.1h-21.1c-4.5,0-8.2,3.7-8.2,8.2s3.7,8.2,8.2,8.2h21.1V243c0,4.5,3.7,8.2,8.2,8.2s8.2-3.7,8.2-8.2v-21.1h21.1c4.5,0,8.2-3.7,8.2-8.2C246,209.2,242.3,205.5,237.8,205.5z"/></g></g>
</svg>